<svg xmlns="http://www.w3.org/2000/svg" version="1.1" width="96px" height="96px" style="shape-rendering:geometricPrecision; text-rendering:geometricPrecision; image-rendering:optimizeQuality; fill-rule:evenodd; clip-rule:evenodd" xmlns:xlink="http://www.w3.org/1999/xlink">
<g><path style="opacity:0.994" fill="#8c6d62" d="M 25.5,11.5 C 25.5,14.5 25.5,17.5 25.5,20.5C 23.0347,18.686 20.368,17.3527 17.5,16.5C 18.0073,22.534 18.8406,28.534 20,34.5C 20.8776,37.2154 22.3776,39.5487 24.5,41.5C 22.585,43.0712 21.585,45.0712 21.5,47.5C 30.1667,47.5 38.8333,47.5 47.5,47.5C 54.5079,47.6663 61.5079,47.4996 68.5,47C 70.7899,45.2228 72.4566,43.0562 73.5,40.5C 77.438,37.9015 81.1047,34.9015 84.5,31.5C 86.2907,37.4337 84.9573,42.6004 80.5,47C 82.1341,47.4935 83.8008,47.6602 85.5,47.5C 85.5,50.8333 85.5,54.1667 85.5,57.5C 81.5,57.5 77.5,57.5 73.5,57.5C 71.5,57.5 69.5,57.5 67.5,57.5C 60.1591,57.3337 52.8258,57.5003 45.5,58C 46.305,59.1127 46.9717,60.2794 47.5,61.5C 45.742,61.8769 44.0754,62.5435 42.5,63.5C 40.3379,61.9802 38.0046,60.9802 35.5,60.5C 32.8082,57.8578 29.4749,56.8578 25.5,57.5C 25.5,66.1667 25.5,74.8333 25.5,83.5C 20.1667,83.5 14.8333,83.5 9.5,83.5C 9.5,59.5 9.5,35.5 9.5,11.5C 14.8333,11.5 20.1667,11.5 25.5,11.5 Z"/></g>
<g><path style="opacity:0.984" fill="#89c14a" d="M 25.5,11.5 C 44.8333,11.5 64.1667,11.5 83.5,11.5C 83.089,19.9855 79.7557,26.9855 73.5,32.5C 73.5,31.5 73.5,30.5 73.5,29.5C 70.1892,18.6695 62.8559,14.1695 51.5,16C 49.1287,16.7348 46.7954,17.5682 44.5,18.5C 43.7492,17.624 43.2492,16.624 43,15.5C 41.0016,17.6632 38.6682,19.3298 36,20.5C 32.4892,19.2173 28.9892,19.2173 25.5,20.5C 25.5,17.5 25.5,14.5 25.5,11.5 Z"/></g>
<g><path style="opacity:1" fill="#445860" d="M 73.5,29.5 C 64.4086,28.6006 59.0753,32.6006 57.5,41.5C 51.8811,40.0632 48.5477,42.0632 47.5,47.5C 38.8333,47.5 30.1667,47.5 21.5,47.5C 21.585,45.0712 22.585,43.0712 24.5,41.5C 22.3776,39.5487 20.8776,37.2154 20,34.5C 18.8406,28.534 18.0073,22.534 17.5,16.5C 20.368,17.3527 23.0347,18.686 25.5,20.5C 28.9892,19.2173 32.4892,19.2173 36,20.5C 38.6682,19.3298 41.0016,17.6632 43,15.5C 43.2492,16.624 43.7492,17.624 44.5,18.5C 46.7954,17.5682 49.1287,16.7348 51.5,16C 62.8559,14.1695 70.1892,18.6695 73.5,29.5 Z"/></g>
<g><path style="opacity:1" fill="#f6e43d" d="M 23.5,27.5 C 27.8333,27.1667 29.8333,29.1667 29.5,33.5C 25.1667,33.8333 23.1667,31.8333 23.5,27.5 Z"/></g>
<g><path style="opacity:1" fill="#f5e33d" d="M 35.5,27.5 C 36.8333,27.5 38.1667,27.5 39.5,27.5C 39.8333,31.8333 37.8333,33.8333 33.5,33.5C 33.2525,31.1417 33.9192,29.1417 35.5,27.5 Z"/></g>
<g><path style="opacity:1" fill="#37474f" d="M 73.5,29.5 C 73.5,30.5 73.5,31.5 73.5,32.5C 73.5,35.1667 73.5,37.8333 73.5,40.5C 72.4566,43.0562 70.7899,45.2228 68.5,47C 61.5079,47.4996 54.5079,47.6663 47.5,47.5C 48.5477,42.0632 51.8811,40.0632 57.5,41.5C 59.0753,32.6006 64.4086,28.6006 73.5,29.5 Z"/></g>
<g><path style="opacity:0.995" fill="#455963" d="M 67.5,57.5 C 69.5,57.5 71.5,57.5 73.5,57.5C 73.5,66.1667 73.5,74.8333 73.5,83.5C 71.5,83.5 69.5,83.5 67.5,83.5C 67.5,74.8333 67.5,66.1667 67.5,57.5 Z"/></g>
<g><path style="opacity:0.956" fill="#8bc24a" d="M 35.5,60.5 C 38.0046,60.9802 40.3379,61.9802 42.5,63.5C 44.0754,62.5435 45.742,61.8769 47.5,61.5C 50.9297,61.1065 54.0964,61.7732 57,63.5C 57.6667,68.1667 57.6667,72.8333 57,77.5C 55.5267,79.0071 53.6934,79.6738 51.5,79.5C 45.7522,77.6713 39.9188,76.0046 34,74.5C 33.3333,70.1667 33.3333,65.8333 34,61.5C 34.3826,60.944 34.8826,60.6107 35.5,60.5 Z"/></g>
</svg>
